<svg xmlns="http://www.w3.org/2000/svg" width="211" height="48" viewBox="0 0 211 48">
    <g fill="#48A9C9" fill-rule="evenodd">
        <path d="M61.498 23.574h-2.223v-5.007h2.223v-.78c0-6.267 5.399-7.12 8.327-7.12 1.094 0 1.835.11 1.835.11v5.416s-.423-.074-.988-.074c-1.2 0-3.07.222-3.07 1.854v.594h3.352v5.007h-3.352v13.76h-6.104v-13.76zM83.85 25.18c0-1.416-.991-2.686-2.496-2.686-1.836 0-2.718 1.306-3.048 2.685h5.544zm-2.35-7.402c5.581 0 8.739 3.846 8.739 9.034 0 .616-.147 1.959-.147 1.959H78.16c.477 2.286 2.387 3.338 4.406 3.338 2.717 0 5.214-1.887 5.214-1.887l2.35 4.39s-3.048 2.721-8.078 2.721c-6.756 0-10.39-4.825-10.39-9.796 0-5.478 3.745-9.76 9.84-9.76zM93.778 18.114h5.874v3.246c0 .635-.07 1.195-.07 1.195h.07c.779-2.613 3.079-4.777 5.804-4.777.354 0 .708.075.708.075v6.344s-.496-.112-1.24-.112c-1.45 0-3.821.485-4.706 3.359-.212.709-.318 1.567-.318 2.612v7.277h-6.122v-19.22zM108.818 18.114h5.874v3.246c0 .635-.07 1.195-.07 1.195h.07c.779-2.613 3.079-4.777 5.804-4.777.354 0 .707.075.707.075v6.344s-.495-.112-1.238-.112c-1.451 0-3.822.485-4.707 3.359-.212.709-.318 1.567-.318 2.612v7.277h-6.122v-19.22zM130.326 32.544c1.662 0 3.14-1.778 3.14-3.302v-.398h-.592c-2.031 0-4.358.58-4.358 2.14 0 .87.554 1.56 1.81 1.56m2.807-7.293h.259v-.326c0-1.56-1.22-2.068-2.808-2.068-2.401 0-5.134 1.778-5.134 1.778l-2.217-4.427s3.288-2.43 7.979-2.43c5.356 0 8.57 2.866 8.57 7.619v11.5h-5.836v-1.124c0-.617.074-1.16.074-1.16h-.074s-1.404 2.72-5.393 2.72c-3.546 0-6.465-2.322-6.465-6.023 0-5.441 8.09-6.059 11.045-6.059M144.026 23.64h-2.475v-4.917h2.662v-5.39h6.298v5.39h4.048v4.917h-4.048v5.754c0 2.112 2.211 2.403 3.449 2.403.524 0 .862-.036.862-.036v5.463s-.713.11-1.762.11c-3.074 0-9.034-.802-9.034-7.102V23.64zM157.476 17.778h6.302v11.206c0 1.781.692 2.523 2.003 2.523 2.696 0 3.971-2.411 3.971-5.269v-8.46h6.303v19.11h-6.048v-1.67c0-.63.073-1.187.073-1.187h-.073c-1.02 2.04-3.351 3.302-5.865 3.302-3.715 0-6.666-1.78-6.666-7.162V17.778zM180.642 18.364h5.987v1.631c0 .616-.072 1.16-.072 1.16h.072c.866-1.305 2.597-3.226 5.519-3.226 2.344 0 4.22 1.051 5.194 3.153h.072c.974-1.558 3.174-3.153 5.95-3.153 3.391 0 6.024 1.849 6.024 6.994v12.104h-6.24V25.974c0-1.377-.252-2.355-1.442-2.355-1.984 0-3.03 1.45-3.427 3.515-.144.652-.144 1.413-.144 2.174v7.72h-6.24V25.973c0-1.377-.252-2.355-1.442-2.355-1.948 0-2.958 1.377-3.39 3.37-.145.689-.181 1.522-.181 2.32v7.718h-6.24V18.364zM47.473 23.972c-.015 13.166-10.634 23.836-23.738 23.85-.478 0-.953-.018-1.426-.047-.128 0-.259-.02-.387-.029-.361-.027-.72-.062-1.078-.106l-.377-.05c-.416-.056-.828-.125-1.237-.204l-.163-.029c-.47-.094-.935-.202-1.395-.325-.104-.027-.204-.06-.308-.088-.338-.096-.674-.197-1.007-.305-.165-.055-.33-.11-.493-.168-.267-.094-.53-.205-.792-.299-.184-.071-.37-.141-.55-.219-.362-.153-.718-.314-1.07-.485-.265-.127-.524-.266-.783-.41-.12-.063-.242-.126-.36-.194s-.285-.147-.424-.227c0 0-2.698-1.775-3.898-2.846l.408-.049c1.322-.166 3.351-.422 5.195-1.392.304.19.612.375.925.546l.225.121c.66.352 1.34.664 2.037.936.194.076.385.15.58.22.146.05.292.1.439.148.254.084.51.16.766.232l.29.082c.368.098.739.184 1.114.26l.155.028c.324.063.65.117.978.162l.313.041c.289.035.577.064.866.086l.316.024c.383.023.768.04 1.156.04 10.612-.008 19.21-8.659 19.201-19.322-.008-10.663-8.617-19.3-19.23-19.293-10.609.008-19.204 8.652-19.202 19.311 0 .516.027 1.024.067 1.544 0 .068 0 .135.017.205.046.507.114 1.012.204 1.513 0 .045.016.09.024.135.279 1.56.748 3.082 1.396 4.528.036.08.071.162.11.242.19.41.393.806.611 1.2.073.132.149.261.226.392.078.131.204.314.294.471.203.328.407.651.633.966h.153c.512-.017 1.019-.11 1.504-.276.64-.237 1.171-.66 1.306-1.404l.163-.686.528-2.727 1.222-6.32h-2.135l.909-4.573h2.123l.7-3.247c1.02-5.722 6.166-6.465 8.792-6.465.71-.003 1.418.03 2.124.1l-1.02 4.942c-.289-.048-.582-.071-.875-.067-1.145 0-2.997.205-3.26 1.69l-.667 3.047h5.66c-.065.033-.124.072-.189.106-.065.035-.09.044-.132.068-.043.025-.072.047-.11.07-.208.12-.412.247-.612.382-.034.023-.07.043-.106.066l-.044.035c-.31.22-.607.46-.889.716l-.093.09c-.245.23-.478.471-.697.725-.045.051-.092.1-.135.151-.224.272-.435.555-.63.848-.052.08-.103.164-.154.246-.15.239-.29.484-.42.737-.043.084-.09.166-.13.252l-.04.073h-2.153l-1.373 7.327-.7 3.247c-.112.655-.3 1.295-.561 1.906-.974 2.237-2.778 3.31-4.57 3.873-.438.141-.882.259-1.331.352-.216.043-.43.082-.638.117-.625.102-1.204.168-1.693.231-.045 0-.29.025-.52.041l-.43.031-.352-.36c-.407-.436-.815-.893-1.206-1.36-.985-1.202-1.85-2.499-2.582-3.871l-.024-.047c-.136-.243-.26-.487-.375-.733-.058-.119-.115-.237-.171-.356-.086-.184-.17-.369-.25-.555-.082-.186-.15-.344-.219-.508-.049-.118-.094-.24-.14-.358-.45-1.147-.811-2.328-1.078-3.531l-.037-.158c-.055-.258-.106-.518-.153-.778-.02-.108-.039-.217-.057-.325-.038-.23-.073-.46-.106-.692-.02-.152-.04-.305-.057-.457-.024-.205-.047-.41-.065-.602-.018-.192-.035-.41-.047-.626-.01-.156-.022-.311-.03-.467C.01 24.713 0 24.338 0 23.962.003 10.79 10.633.115 23.742.117c13.106.003 23.73 10.677 23.733 23.845l-.002.01zm-20.227.436c.09-.132.189-.259.295-.378.555-.638 1.362-.996 2.205-.979.24-.003.478.041.701.13.196.078.373.199.518.353.142.155.252.338.321.537.075.216.113.443.11.671 0 .09 0 .227-.014.34-.014.113-.014.205-.014.205h-4.564c.114-.309.262-.603.442-.879zm-6.213 5.528c.041.217.092.431.153.643.061.208.133.413.214.614.533 1.316 1.5 2.409 2.74 3.093.185.105.378.204.577.295.2.091.409.175.626.252.247.087.504.165.772.233s.546.126.836.172c.613.097 1.234.144 1.856.141 1.534-.022 3.046-.367 4.44-1.01.28-.128.533-.253.755-.372.167-.088.316-.173.445-.25.258-.153.442-.276.533-.339l.072-.05-1.32-3.889c-.367.236-.749.45-1.142.639-.892.434-2.188.927-3.455.927-.174 0-.347-.008-.52-.026-.308-.03-.612-.098-.902-.205-.132-.05-.26-.11-.382-.18-.074-.049-.146-.101-.215-.158-.217-.15-.406-.339-.559-.555-.312-.487-.47-1.058-.452-1.637h9.754s.036-.103.09-.277c.052-.174.124-.422.203-.714.037-.146.071-.303.104-.47.033-.165.065-.337.092-.511.026-.174.049-.356.065-.536.016-.18.024-.36.024-.539 0-.327-.019-.655-.059-.98-.097-.898-.397-1.762-.876-2.527-.662-1.013-1.647-1.771-2.793-2.149-.674-.228-1.375-.366-2.085-.41-.256-.019-.522-.028-.796-.028-.621 0-1.24.062-1.848.186-.439.087-.87.209-1.29.362-.411.154-.81.339-1.192.553-.126.072-.245.156-.367.232-.122.075-.249.15-.367.23-.592.42-1.13.911-1.6 1.465-.48.561-.89 1.18-1.222 1.842-.696 1.428-1.052 3-1.039 4.59.002.45.045.9.13 1.343z"/>
    </g>
</svg>
